<svg width="249" height="40" viewBox="0 0 249 40" fill="none" xmlns="http://www.w3.org/2000/svg">
    <path d="M65.5783 30.058H60.7483L53.8759 10.6H57.4363L62.9287 26.6356H63.4807L69.1663 10.6H72.6715L65.5783 30.058Z" fill="black"/>
    <path d="M81.8671 19.984L90.8095 30.058H86.4487L79.1623 21.7228H78.3343V30.058H75.0223V10.6H78.3343V18.5212H79.1347L86.0347 10.6H90.1195L81.8671 19.984Z" fill="black"/>
    <path d="M98.6871 30.058V10.6H105.587C106.912 10.6 108.108 10.8852 109.175 11.4556C110.261 12.0076 111.107 12.7804 111.714 13.774C112.321 14.7676 112.625 15.8992 112.625 17.1688C112.625 18.42 112.321 19.5516 111.714 20.5636C111.107 21.5572 110.261 22.3392 109.175 22.9096C108.108 23.4616 106.912 23.7376 105.587 23.7376H101.999V30.058H98.6871ZM105.587 20.7016C106.673 20.7016 107.547 20.3796 108.209 19.7356C108.89 19.0732 109.23 18.2176 109.23 17.1688C109.23 16.12 108.89 15.2736 108.209 14.6296C107.547 13.9672 106.673 13.636 105.587 13.636H101.999V20.7016H105.587Z" fill="black"/>
    <path d="M128.659 22.7164C128.659 22.9924 128.641 23.3328 128.604 23.7376H117.067C117.214 24.86 117.674 25.7616 118.447 26.4424C119.22 27.1048 120.204 27.436 121.4 27.436C122.21 27.436 122.937 27.2796 123.581 26.9668C124.243 26.654 124.749 26.2308 125.099 25.6972L128.079 26.194C127.564 27.5188 126.672 28.54 125.402 29.2576C124.151 29.9752 122.753 30.334 121.207 30.334C119.772 30.334 118.484 30.0212 117.343 29.3956C116.221 28.7516 115.337 27.8684 114.693 26.746C114.068 25.6052 113.755 24.3172 113.755 22.882C113.755 21.4468 114.068 20.168 114.693 19.0456C115.337 17.9048 116.221 17.0216 117.343 16.396C118.484 15.752 119.772 15.43 121.207 15.43C122.642 15.43 123.921 15.752 125.043 16.396C126.184 17.0216 127.067 17.8956 127.693 19.018C128.337 20.122 128.659 21.3548 128.659 22.7164ZM121.207 18.19C120.25 18.19 119.413 18.466 118.695 19.018C117.996 19.57 117.518 20.3152 117.26 21.2536H125.209C124.933 20.3336 124.436 19.5976 123.719 19.0456C123.019 18.4752 122.182 18.19 121.207 18.19Z" fill="black"/>
    <path d="M137.977 30.334C136.505 30.334 135.18 30.0212 134.003 29.3956C132.843 28.7516 131.933 27.8684 131.27 26.746C130.626 25.6052 130.304 24.3172 130.304 22.882C130.304 21.4468 130.626 20.168 131.27 19.0456C131.933 17.9048 132.843 17.0216 134.003 16.396C135.18 15.752 136.505 15.43 137.977 15.43C139.449 15.43 140.765 15.752 141.924 16.396C143.101 17.0216 144.012 17.9048 144.656 19.0456C145.319 20.168 145.65 21.4468 145.65 22.882C145.65 24.3172 145.319 25.6052 144.656 26.746C144.012 27.8684 143.101 28.7516 141.924 29.3956C140.765 30.0212 139.449 30.334 137.977 30.334ZM137.977 27.436C139.265 27.436 140.314 27.022 141.123 26.194C141.933 25.3476 142.338 24.2436 142.338 22.882C142.338 21.5204 141.933 20.4256 141.123 19.5976C140.314 18.7512 139.265 18.328 137.977 18.328C136.689 18.328 135.64 18.7512 134.831 19.5976C134.021 20.4256 133.616 21.5204 133.616 22.882C133.616 24.2436 134.021 25.3476 134.831 26.194C135.64 27.022 136.689 27.436 137.977 27.436Z" fill="black"/>
    <path d="M148.409 35.716V15.706H150.783L151.445 18.0244C152.034 17.3068 152.788 16.6996 153.708 16.2028C154.628 15.6876 155.686 15.43 156.882 15.43C158.226 15.43 159.431 15.752 160.498 16.396C161.565 17.0216 162.393 17.9048 162.982 19.0456C163.589 20.168 163.893 21.4468 163.893 22.882C163.893 24.3172 163.589 25.6052 162.982 26.746C162.393 27.8684 161.565 28.7516 160.498 29.3956C159.431 30.0212 158.226 30.334 156.882 30.334C155.723 30.334 154.693 30.104 153.791 29.644C152.89 29.1656 152.154 28.5768 151.583 27.8776V35.716H148.409ZM156.11 27.4912C157.434 27.4912 158.511 27.068 159.339 26.2216C160.167 25.3568 160.581 24.2436 160.581 22.882C160.581 21.5204 160.167 20.4164 159.339 19.57C158.511 18.7052 157.434 18.2728 156.11 18.2728C154.766 18.2728 153.672 18.7052 152.825 19.57C151.997 20.4164 151.583 21.5204 151.583 22.882C151.583 24.2436 151.997 25.3568 152.825 26.2216C153.672 27.068 154.766 27.4912 156.11 27.4912Z" fill="black"/>
    <path d="M169.968 30.058H166.794V10.6H169.968V30.058Z" fill="black"/>
    <path d="M187.767 22.7164C187.767 22.9924 187.749 23.3328 187.712 23.7376H176.175C176.322 24.86 176.782 25.7616 177.555 26.4424C178.328 27.1048 179.312 27.436 180.508 27.436C181.318 27.436 182.045 27.2796 182.689 26.9668C183.351 26.654 183.857 26.2308 184.207 25.6972L187.188 26.194C186.672 27.5188 185.78 28.54 184.51 29.2576C183.259 29.9752 181.861 30.334 180.315 30.334C178.88 30.334 177.592 30.0212 176.451 29.3956C175.329 28.7516 174.446 27.8684 173.802 26.746C173.176 25.6052 172.863 24.3172 172.863 22.882C172.863 21.4468 173.176 20.168 173.802 19.0456C174.446 17.9048 175.329 17.0216 176.451 16.396C177.592 15.752 178.88 15.43 180.315 15.43C181.75 15.43 183.029 15.752 184.152 16.396C185.292 17.0216 186.176 17.8956 186.801 19.018C187.445 20.122 187.767 21.3548 187.767 22.7164ZM180.315 18.19C179.358 18.19 178.521 18.466 177.804 19.018C177.104 19.57 176.626 20.3152 176.368 21.2536H184.317C184.041 20.3336 183.544 19.5976 182.827 19.0456C182.128 18.4752 181.29 18.19 180.315 18.19Z" fill="black"/>
    <path d="M209.705 18.7144V10.6H213.017V30.058H209.705V21.7504H200.459V30.058H197.147V10.6H200.459V18.7144H209.705Z" fill="black"/>
    <path d="M222.114 30.334C221.102 30.334 220.182 30.0764 219.354 29.5612C218.544 29.046 217.9 28.3376 217.422 27.436C216.962 26.5344 216.732 25.5132 216.732 24.3724V15.706H219.906V24.0136C219.906 25.044 220.191 25.8812 220.762 26.5252C221.35 27.1692 222.096 27.4912 222.997 27.4912C223.917 27.4912 224.681 27.1692 225.288 26.5252C225.895 25.8628 226.199 25.0256 226.199 24.0136V15.706H229.373V30.058H226.999L226.364 27.9052C225.904 28.6596 225.297 29.2576 224.543 29.6992C223.788 30.1224 222.979 30.334 222.114 30.334Z" fill="black"/>
    <path d="M241.572 30.334C240.376 30.334 239.318 30.0856 238.398 29.5888C237.478 29.0736 236.724 28.4572 236.135 27.7396L235.473 30.058H233.099V10.6H236.273V17.8864C236.843 17.1872 237.579 16.6076 238.481 16.1476C239.383 15.6692 240.413 15.43 241.572 15.43C242.915 15.43 244.121 15.752 245.188 16.396C246.255 17.0216 247.083 17.9048 247.672 19.0456C248.279 20.168 248.583 21.4468 248.583 22.882C248.583 24.3172 248.279 25.6052 247.672 26.746C247.083 27.8684 246.255 28.7516 245.188 29.3956C244.121 30.0212 242.915 30.334 241.572 30.334ZM240.799 27.4912C242.124 27.4912 243.201 27.068 244.029 26.2216C244.857 25.3568 245.271 24.2436 245.271 22.882C245.271 21.5204 244.857 20.4164 244.029 19.57C243.201 18.7052 242.124 18.2728 240.799 18.2728C239.456 18.2728 238.361 18.7052 237.515 19.57C236.687 20.4164 236.273 21.5204 236.273 22.882C236.273 24.2436 236.687 25.3568 237.515 26.2216C238.361 27.068 239.456 27.4912 240.799 27.4912Z" fill="black"/>
    <path d="M0 19.0164C0 10.052 0 5.56977 2.78489 2.78489C5.56977 0 10.052 0 19.0164 0H20.9836C29.948 0 34.4302 0 37.2151 2.78489C40 5.56977 40 10.052 40 19.0164V20.9836C40 29.948 40 34.4302 37.2151 37.2151C34.4302 40 29.948 40 20.9836 40H19.0164C10.052 40 5.56977 40 2.78489 37.2151C0 34.4302 0 29.948 0 20.9836V19.0164Z" fill="#313131"/>
    <path d="M0.040804 13.9C0 15.5976 0 17.5228 0 19.7164V20.9836C0 29.948 0 34.4302 2.78489 37.2151C5.56977 40 10.052 40 19.0164 40H20.9836C29.948 40 34.4302 40 37.2151 37.2151C40 34.4302 40 29.948 40 20.9836V19.7164C40 17.5228 40 15.5976 39.9592 13.9C39.8332 19.14 39.3185 22.2117 37.2151 24.3151C34.4302 27.1 29.948 27.1 20.9836 27.1H19.0164C10.052 27.1 5.56977 27.1 2.78489 24.3151C0.681458 22.2117 0.166752 19.14 0.040804 13.9Z" fill="#0077FF"/>
    <path d="M8.20016 12.9C8.20016 10.4147 10.2149 8.39999 12.7002 8.39999C15.1854 8.39999 17.2002 10.4147 17.2002 12.9V13.7C17.2002 16.1853 15.1854 18.2 12.7002 18.2C10.2149 18.2 8.20016 16.1853 8.20016 13.7V12.9Z" fill="white"/>
    <path d="M4.51886 25.5905C7.37801 27.1 11.7074 27.1 19.0166 27.1H20.9838C27.8906 27.1 32.1367 27.1 34.9957 25.8263C33.4535 23.1791 30.5846 21.4 27.3002 21.4C24.5255 21.4 22.0474 22.6697 20.4152 24.6598C18.8777 21.9942 15.9985 20.2 12.7002 20.2C9.0311 20.2 5.88059 22.4202 4.51886 25.5905Z" fill="white"/>
    <path d="M22.6002 14.1C22.6002 11.6147 24.6149 9.59999 27.1002 9.59999C29.5854 9.59999 31.6002 11.6147 31.6002 14.1V14.9C31.6002 17.3853 29.5854 19.4 27.1002 19.4C24.6149 19.4 22.6002 17.3853 22.6002 14.9V14.1Z" fill="white"/>
</svg>
